<svg width="24" height="24" viewBox="0 0 24 24" fill="none" xmlns="http://www.w3.org/2000/svg">
<g clip-path="url(#clip0_8403_9)">
<path d="M23.25 8.625H14.6625L12 0.75L9.3375 8.625H0.75L7.6875 13.5L5.025 21.375L12 16.5L18.9375 21.375L16.275 13.5L23.25 8.625Z" fill="#6B7280"/>
<path d="M17.325 7.61252L18.825 3.33752L14.8875 6.03752L15.45 7.61252H17.325ZM10.4625 18.75L12 23.25L13.5375 18.75L12 17.7L10.4625 18.75ZM19.0125 12.8625L17.5875 13.8375L18.1875 15.6375H23.025L19.0125 12.8625ZM9.11247 6.03752L5.17498 3.33752L6.67497 7.61252H8.54997L9.11247 6.03752ZM4.98748 12.8625L0.974976 15.6375H5.81248L6.41248 13.8375L4.98748 12.8625Z" fill="black"/>
</g>
<defs>
<clipPath id="clip0_8403_9">
<rect width="24" height="24" fill="white"/>
</clipPath>
</defs>
</svg>
